/* XPM */
static char * C:\Users\alladin\Downloads\pinea64\freifunk\FlashDumper_xpm[] = {
"32 32 211 2",
"  	c None",
". 	c #FFFFFF",
"+ 	c #FEFBFC",
"@ 	c #F5D5DC",
"# 	c #EBA7B8",
"$ 	c #E5819D",
"% 	c #E26B8F",
"& 	c #E47A98",
"* 	c #E99CB0",
"= 	c #F2C8D2",
"- 	c #FDF5F7",
"; 	c #FFFEFE",
"> 	c #F2C9D3",
", 	c #E05582",
"' 	c #DC0468",
") 	c #DD3072",
"! 	c #EDB0BF",
"~ 	c #FDF9FA",
"{ 	c #E892A9",
"] 	c #E1658B",
"^ 	c #EEB5C3",
"/ 	c #F5D6DD",
"( 	c #F7DEE5",
"_ 	c #F6D9E0",
": 	c #EFBECA",
"< 	c #E47C99",
"[ 	c #DC0768",
"} 	c #E2688C",
"| 	c #FAEBEF",
"1 	c #FEFAFB",
"2 	c #E5839E",
"3 	c #DF497B",
"4 	c #F3CDD7",
"5 	c #F4D1DA",
"6 	c #F3CCD7",
"7 	c #F3CED7",
"8 	c #F3CDD8",
"9 	c #FBF0F3",
"0 	c #F7DEE4",
"a 	c #E2688D",
"b 	c #E0517F",
"c 	c #FAEDF0",
"d 	c #EBA6B8",
"e 	c #E16288",
"f 	c #FBEDF1",
"g 	c #F5D2DB",
"h 	c #F4D3DB",
"i 	c #F6DBE2",
"j 	c #F3CAD5",
"k 	c #FCF4F6",
"l 	c #E5849F",
"m 	c #E36F91",
"n 	c #F7E1E6",
"o 	c #DC0B69",
"p 	c #DE3C76",
"q 	c #F3C9D4",
"r 	c #FBF1F3",
"s 	c #F1C2CE",
"t 	c #E2678C",
"u 	c #EFBAC7",
"v 	c #E78CA4",
"w 	c #F0C2CD",
"x 	c #F5D7DF",
"y 	c #FBEFF2",
"z 	c #DC0668",
"A 	c #DE4379",
"B 	c #FDF8FA",
"C 	c #FFFDFD",
"D 	c #F6D8E0",
"E 	c #F4CED8",
"F 	c #F2C6D2",
"G 	c #DC156A",
"H 	c #DF477B",
"I 	c #FDF6F8",
"J 	c #F8E0E6",
"K 	c #FAECF0",
"L 	c #E57F9C",
"M 	c #F3CFD8",
"N 	c #F9E9ED",
"O 	c #F2C7D2",
"P 	c #E47797",
"Q 	c #F4CFD9",
"R 	c #FDF7F8",
"S 	c #F1C3CE",
"T 	c #EAA2B4",
"U 	c #F9E8EC",
"V 	c #F5D6DF",
"W 	c #EEB4C3",
"X 	c #F1C4CF",
"Y 	c #EA9FB4",
"Z 	c #FEF3E7",
"` 	c #FEF3E6",
" .	c #FEF7EE",
"..	c #F8E2E7",
"+.	c #FFFEFC",
"@.	c #FFFFFE",
"#.	c #EBA7B7",
"$.	c #F4D5DC",
"%.	c #FCDBB3",
"&.	c #FAB313",
"*.	c #FABA4B",
"=.	c #FEF3E8",
"-.	c #F4CED9",
";.	c #FBECF0",
">.	c #E2648B",
",.	c #FFFEFD",
"'.	c #FCD29B",
").	c #FBC67A",
"!.	c #FFFBF7",
"~.	c #EBAABA",
"{.	c #F4D2DA",
"].	c #FCF2F4",
"^.	c #FDDEBA",
"/.	c #FAB314",
"(.	c #FAB317",
"_.	c #FDE0BD",
":.	c #FEEFDE",
"<.	c #FEF5EB",
"[.	c #F4CDD8",
"}.	c #FAEAEE",
"|.	c #E26C8F",
"1.	c #FEF2E6",
"2.	c #FBC372",
"3.	c #FBC069",
"4.	c #FBC984",
"5.	c #EFBDC9",
"6.	c #FFFDFE",
"7.	c #FDE6CC",
"8.	c #FAB315",
"9.	c #FCD4A4",
"0.	c #F6DAE0",
"a.	c #E685A0",
"b.	c #F4D0DA",
"c.	c #FFFAF5",
"d.	c #FDEBD5",
"e.	c #FCD6A5",
"f.	c #FAB526",
"g.	c #FDE9D4",
"h.	c #F6DAE1",
"i.	c #E68BA4",
"j.	c #F8E4EA",
"k.	c #FFFAF4",
"l.	c #FBC26E",
"m.	c #FAB319",
"n.	c #FBCC8E",
"o.	c #FBCE94",
"p.	c #FDE2C4",
"q.	c #EDB2C0",
"r.	c #FDE4CB",
"s.	c #FEEDDD",
"t.	c #DE3F77",
"u.	c #DD1B6C",
"v.	c #FBEEF2",
"w.	c #F2C7D3",
"x.	c #FEF8F2",
"y.	c #FBC065",
"z.	c #FCD19B",
"A.	c #E05682",
"B.	c #F7DFE5",
"C.	c #ECACBC",
"D.	c #EEB6C5",
"E.	c #FEF7EF",
"F.	c #FCD3A3",
"G.	c #FCD2A2",
"H.	c #FEECD9",
"I.	c #F0BECA",
"J.	c #FCF3F5",
"K.	c #DE4278",
"L.	c #F0BDCA",
"M.	c #EEB5C5",
"N.	c #F5D5DE",
"O.	c #F8E2E8",
"P.	c #F4D2DB",
"Q.	c #DD2D70",
"R.	c #F5D8DF",
"S.	c #F8E4E9",
"T.	c #F9E7EC",
"U.	c #F4D0D9",
"V.	c #DC0969",
"W.	c #F1C4D0",
"X.	c #FEF9FB",
"Y.	c #F8E3E9",
"Z.	c #F6DCE2",
"`.	c #EBA4B6",
" +	c #ECAEBE",
".+	c #DC0869",
"++	c #E790A7",
"@+	c #FCF4F7",
"#+	c #F5D5DD",
"$+	c #EBA6B7",
"%+	c #DC166B",
"&+	c #F1C3CF",
"*+	c #F9E5EA",
"=+	c #DC0568",
"-+	c #E1638A",
";+	c #E99CAF",
">+	c #ECAABA",
",+	c #EAA0B3",
"'+	c #E37393",
")+	c #DC136A",
"!+	c #DC146A",
"~+	c #FEFCFD",
"{+	c #F8E1E7",
"]+	c #F2C8D4",
"^+	c #EBA9BA",
"/+	c #DE3B76",
"(+	c #DD1E6C",
"_+	c #E791A8",
":+	c #F7DDE3",
"<+	c #F1C6D0",
"[+	c #000000",
"                                  . . . . . . .                 ",
"                              . + @ # $ % & * = - .             ",
"                            ; > , ' ' ' ' ' ' ' ) ! ~ .         ",
"                          ~ { ' ' ] ^ / ( _ : < [ ' } | .       ",
"                        1 2 ' 3 4 - 5 6 7 6 8 9 0 a ' b c       ",
"                      . d ' e f g h + . . . ; i j k l ' m 1     ",
"                      n o p | q r . . . . . . . 1 s k t ' u .   ",
"            . . . . . v ' w x y . . . . . . . . . 1 j 0 z A B   ",
"        . C D 6 6 E F G H I E . . . . . . . . . . . J K L ' M   ",
"      . N O k . . . M ' P Q R . . . . . . . . . . . . 8 S ' T . ",
"    . U V . . . . . W ' X Y 1 . . . . . Z `  .. . . . Q ..' < . ",
"    + q . . +.@.. . #.' $.6 q . . . . %.&.*.=.. . . . -.;.' >.. ",
"  . h ~ . ,.'.).!.. ~.' {.5 i ].. . ^./.(._.:.:.<.. . [.}.' |.. ",
"  . 8 . 1.2.3.&.4.@.5.' 5.E 6.5 . 7.8.&.&.&.&.&.9.. . E 0.' a.. ",
"  . b.. c.d.e.f.g.. h.' i.j.}.E . k.l.&.m.n.o.o.p.. + 5 q.' q.. ",
"  . b.. . ,.r.s.. . 1 t.u.v.w.[.. . x.y.&.z.,.. . . Q k A.' B.  ",
"  . Q . . . . . . . . C.' * }.D.. . . E.F.G.H.. . N h.I.' m ;   ",
"  . 4 . . . . . . . . J.K.z L.M.N.. . . . . . . O.P...Q.z R..   ",
"    S.T.. . . . . . . . U.V.' W.y w.x I 6.X.B.O Y.Z.A ' `..     ",
"    . O 1 . . . . . . . .  +.+' ++S.@+_ U.#+y f $+%+' +++       ",
"      + &+I . . . . . . *+P.7 t.' =+-+;+>+,+'+)+' !+ +~+        ",
"        ; U.4 | X.B {+]+{+. . ].^+/+' ' ' ' ' (+_+Y..           ",
"          . 6.*+h N.f . .       . 1 :+<+u w #+k .               ",
"                . .                   . . .                     ",
"                                                                ",
"  [+              [+  [+              [+                    [+  ",
"  [+[+[+[+  [+[+  [+[+[+[+[+[+[+[+[+  [+[+    [+[+[+  [+[+[+[+  ",
"  [+  [+[+[+[+[+[+[+  [+  [+[+[+[+[+[+[+[+    [+[+[+[+[+[+  [+  ",
"  [+  [+    [+[+  [+  [+  [+[+[+[+[+[+[+[+    [+[+[+[+[+[+  [+  ",
"  [+  [+    [+[+[+[+  [+  [+[+[+[+[+[+[+[+    [+[+[+[+[+[+  [+  ",
"  [+  [+    [+[+  [+  [+  [+[+[+[+[+[+[+[+  [+[+[+[+  [+[+  [+  ",
"                                                                "};
